<svg width="281" height="70" viewBox="0 0 281 70" fill="none" xmlns="http://www.w3.org/2000/svg">
<g clip-path="url(#clip0)">
<g filter="url(#filter0_d)">
<path fill-rule="evenodd" clip-rule="evenodd" d="M26.5 0C11.8645 0 0 11.8645 0 26.5C0 41.1355 11.8645 53 26.5 53H228.374C229.441 56.4743 232.676 59 236.5 59C240.324 59 243.559 56.4743 244.626 53H254.5C269.136 53 281 41.1355 281 26.5C281 11.8645 269.136 0 254.5 0H26.5Z" fill="white"/>
</g>
<g filter="url(#filter1_d)">
<path fill-rule="evenodd" clip-rule="evenodd" d="M259.5 70C261.985 70 264 67.9853 264 65.5C264 63.0147 261.985 61 259.5 61C257.015 61 255 63.0147 255 65.5C255 67.9853 257.015 70 259.5 70Z" fill="white"/>
</g>
<path d="M26.4146 20.88V32H24.5906V20.88H26.4146ZM32.3576 27.584C32.3576 26.6773 32.539 25.8827 32.9016 25.2C33.275 24.5067 33.787 23.9733 34.4376 23.6C35.0883 23.2267 35.835 23.04 36.6776 23.04C37.7443 23.04 38.6243 23.296 39.3176 23.808C40.0216 24.3093 40.4963 25.0293 40.7416 25.968H38.7736C38.6136 25.5307 38.3576 25.1893 38.0056 24.944C37.6536 24.6987 37.211 24.576 36.6776 24.576C35.931 24.576 35.3336 24.8427 34.8856 25.376C34.4483 25.8987 34.2296 26.6347 34.2296 27.584C34.2296 28.5333 34.4483 29.2747 34.8856 29.808C35.3336 30.3413 35.931 30.608 36.6776 30.608C37.7336 30.608 38.4323 30.144 38.7736 29.216H40.7416C40.4856 30.112 40.0056 30.8267 39.3016 31.36C38.5976 31.8827 37.723 32.144 36.6776 32.144C35.835 32.144 35.0883 31.9573 34.4376 31.584C33.787 31.2 33.275 30.6667 32.9016 29.984C32.539 29.2907 32.3576 28.4907 32.3576 27.584ZM41.9514 27.552C41.9514 26.6667 42.1327 25.8827 42.4954 25.2C42.8687 24.5173 43.37 23.9893 43.9994 23.616C44.6394 23.232 45.3434 23.04 46.1114 23.04C46.8047 23.04 47.4074 23.1787 47.9194 23.456C48.442 23.7227 48.858 24.0587 49.1674 24.464V23.184H51.0074V32H49.1674V30.688C48.858 31.104 48.4367 31.4507 47.9034 31.728C47.37 32.0053 46.762 32.144 46.0794 32.144C45.322 32.144 44.6287 31.952 43.9994 31.568C43.37 31.1733 42.8687 30.6293 42.4954 29.936C42.1327 29.232 41.9514 28.4373 41.9514 27.552ZM49.1674 27.584C49.1674 26.976 49.0394 26.448 48.7834 26C48.538 25.552 48.2127 25.2107 47.8074 24.976C47.402 24.7413 46.9647 24.624 46.4954 24.624C46.026 24.624 45.5887 24.7413 45.1834 24.976C44.778 25.2 44.4474 25.536 44.1914 25.984C43.946 26.4213 43.8234 26.944 43.8234 27.552C43.8234 28.16 43.946 28.6933 44.1914 29.152C44.4474 29.6107 44.778 29.9627 45.1834 30.208C45.5994 30.4427 46.0367 30.56 46.4954 30.56C46.9647 30.56 47.402 30.4427 47.8074 30.208C48.2127 29.9733 48.538 29.632 48.7834 29.184C49.0394 28.7253 49.1674 28.192 49.1674 27.584ZM57.8511 23.04C58.5445 23.04 59.1631 23.184 59.7071 23.472C60.2618 23.76 60.6938 24.1867 61.0031 24.752C61.3125 25.3173 61.4671 26 61.4671 26.8V32H59.6591V27.072C59.6591 26.2827 59.4618 25.68 59.0671 25.264C58.6725 24.8373 58.1338 24.624 57.4511 24.624C56.7685 24.624 56.2245 24.8373 55.8191 25.264C55.4245 25.68 55.2271 26.2827 55.2271 27.072V32H53.4031V23.184H55.2271V24.192C55.5258 23.8293 55.9045 23.5467 56.3631 23.344C56.8325 23.1413 57.3285 23.04 57.8511 23.04ZM72.51 23.04C73.182 23.04 73.7793 23.184 74.302 23.472C74.8353 23.76 75.2513 24.1867 75.55 24.752C75.8593 25.3173 76.014 26 76.014 26.8V32H74.206V27.072C74.206 26.2827 74.0087 25.68 73.614 25.264C73.2193 24.8373 72.6807 24.624 71.998 24.624C71.3153 24.624 70.7713 24.8373 70.366 25.264C69.9713 25.68 69.774 26.2827 69.774 27.072V32H67.95V20.16H69.774V24.208C70.0833 23.8347 70.4727 23.5467 70.942 23.344C71.422 23.1413 71.9447 23.04 72.51 23.04ZM86.4206 27.376C86.4206 27.7067 86.3993 28.0053 86.3566 28.272H79.6206C79.674 28.976 79.9353 29.5413 80.4046 29.968C80.874 30.3947 81.45 30.608 82.1326 30.608C83.114 30.608 83.8073 30.1973 84.2126 29.376H86.1806C85.914 30.1867 85.4286 30.8533 84.7246 31.376C84.0313 31.888 83.1673 32.144 82.1326 32.144C81.29 32.144 80.5326 31.9573 79.8606 31.584C79.1993 31.2 78.6766 30.6667 78.2926 29.984C77.9193 29.2907 77.7326 28.4907 77.7326 27.584C77.7326 26.6773 77.914 25.8827 78.2766 25.2C78.65 24.5067 79.1673 23.9733 79.8286 23.6C80.5006 23.2267 81.2686 23.04 82.1326 23.04C82.9646 23.04 83.706 23.2213 84.3566 23.584C85.0073 23.9467 85.514 24.4587 85.8766 25.12C86.2393 25.7707 86.4206 26.5227 86.4206 27.376ZM84.5166 26.8C84.506 26.128 84.266 25.5893 83.7966 25.184C83.3273 24.7787 82.746 24.576 82.0526 24.576C81.4233 24.576 80.8846 24.7787 80.4366 25.184C79.9886 25.5787 79.722 26.1173 79.6366 26.8H84.5166ZM90.0396 20.16V32H88.2156V20.16H90.0396ZM94.2584 24.48C94.5677 24.0747 94.989 23.7333 95.5224 23.456C96.0557 23.1787 96.6584 23.04 97.3304 23.04C98.0984 23.04 98.797 23.232 99.4264 23.616C100.066 23.9893 100.568 24.5173 100.93 25.2C101.293 25.8827 101.474 26.6667 101.474 27.552C101.474 28.4373 101.293 29.232 100.93 29.936C100.568 30.6293 100.066 31.1733 99.4264 31.568C98.797 31.952 98.0984 32.144 97.3304 32.144C96.6584 32.144 96.061 32.0107 95.5384 31.744C95.0157 31.4667 94.589 31.1253 94.2584 30.72V36.192H92.4344V23.184H94.2584V24.48ZM99.6184 27.552C99.6184 26.944 99.4904 26.4213 99.2344 25.984C98.989 25.536 98.6584 25.2 98.2424 24.976C97.837 24.7413 97.3997 24.624 96.9304 24.624C96.4717 24.624 96.0344 24.7413 95.6184 24.976C95.213 25.2107 94.8824 25.552 94.6264 26C94.381 26.448 94.2584 26.976 94.2584 27.584C94.2584 28.192 94.381 28.7253 94.6264 29.184C94.8824 29.632 95.213 29.9733 95.6184 30.208C96.0344 30.4427 96.4717 30.56 96.9304 30.56C97.3997 30.56 97.837 30.4427 98.2424 30.208C98.6584 29.9627 98.989 29.6107 99.2344 29.152C99.4904 28.6933 99.6184 28.16 99.6184 27.552ZM118.106 23.04C118.8 23.04 119.418 23.184 119.962 23.472C120.517 23.76 120.949 24.1867 121.258 24.752C121.578 25.3173 121.738 26 121.738 26.8V32H119.93V27.072C119.93 26.2827 119.733 25.68 119.338 25.264C118.944 24.8373 118.405 24.624 117.722 24.624C117.04 24.624 116.496 24.8373 116.09 25.264C115.696 25.68 115.498 26.2827 115.498 27.072V32H113.69V27.072C113.69 26.2827 113.493 25.68 113.098 25.264C112.704 24.8373 112.165 24.624 111.482 24.624C110.8 24.624 110.256 24.8373 109.85 25.264C109.456 25.68 109.258 26.2827 109.258 27.072V32H107.434V23.184H109.258V24.192C109.557 23.8293 109.936 23.5467 110.394 23.344C110.853 23.1413 111.344 23.04 111.866 23.04C112.57 23.04 113.2 23.1893 113.754 23.488C114.309 23.7867 114.736 24.2187 115.034 24.784C115.301 24.2507 115.717 23.8293 116.282 23.52C116.848 23.2 117.456 23.04 118.106 23.04ZM123.451 27.552C123.451 26.6667 123.633 25.8827 123.995 25.2C124.369 24.5173 124.87 23.9893 125.499 23.616C126.139 23.232 126.843 23.04 127.611 23.04C128.305 23.04 128.907 23.1787 129.419 23.456C129.942 23.7227 130.358 24.0587 130.667 24.464V23.184H132.507V32H130.667V30.688C130.358 31.104 129.937 31.4507 129.403 31.728C128.87 32.0053 128.262 32.144 127.579 32.144C126.822 32.144 126.129 31.952 125.499 31.568C124.87 31.1733 124.369 30.6293 123.995 29.936C123.633 29.232 123.451 28.4373 123.451 27.552ZM130.667 27.584C130.667 26.976 130.539 26.448 130.283 26C130.038 25.552 129.713 25.2107 129.307 24.976C128.902 24.7413 128.465 24.624 127.995 24.624C127.526 24.624 127.089 24.7413 126.683 24.976C126.278 25.2 125.947 25.536 125.691 25.984C125.446 26.4213 125.323 26.944 125.323 27.552C125.323 28.16 125.446 28.6933 125.691 29.152C125.947 29.6107 126.278 29.9627 126.683 30.208C127.099 30.4427 127.537 30.56 127.995 30.56C128.465 30.56 128.902 30.4427 129.307 30.208C129.713 29.9733 130.038 29.632 130.283 29.184C130.539 28.7253 130.667 28.192 130.667 27.584ZM136.727 24.464C136.994 24.016 137.346 23.6693 137.783 23.424C138.231 23.168 138.759 23.04 139.367 23.04V24.928H138.903C138.188 24.928 137.644 25.1093 137.271 25.472C136.908 25.8347 136.727 26.464 136.727 27.36V32H134.903V23.184H136.727V24.464ZM144.532 27.6L148.596 32H146.132L142.868 28.208V32H141.044V20.16H142.868V27.04L146.068 23.184H148.596L144.532 27.6ZM157.983 27.376C157.983 27.7067 157.962 28.0053 157.919 28.272H151.183C151.236 28.976 151.498 29.5413 151.967 29.968C152.436 30.3947 153.012 30.608 153.695 30.608C154.676 30.608 155.37 30.1973 155.775 29.376H157.743C157.476 30.1867 156.991 30.8533 156.287 31.376C155.594 31.888 154.73 32.144 153.695 32.144C152.852 32.144 152.095 31.9573 151.423 31.584C150.762 31.2 150.239 30.6667 149.855 29.984C149.482 29.2907 149.295 28.4907 149.295 27.584C149.295 26.6773 149.476 25.8827 149.839 25.2C150.212 24.5067 150.73 23.9733 151.391 23.6C152.063 23.2267 152.831 23.04 153.695 23.04C154.527 23.04 155.268 23.2213 155.919 23.584C156.57 23.9467 157.076 24.4587 157.439 25.12C157.802 25.7707 157.983 26.5227 157.983 27.376ZM156.079 26.8C156.068 26.128 155.828 25.5893 155.359 25.184C154.89 24.7787 154.308 24.576 153.615 24.576C152.986 24.576 152.447 24.7787 151.999 25.184C151.551 25.5787 151.284 26.1173 151.199 26.8H156.079ZM161.906 24.672V29.552C161.906 29.8827 161.981 30.1227 162.13 30.272C162.29 30.4107 162.557 30.48 162.93 30.48H164.05V32H162.61C161.789 32 161.159 31.808 160.722 31.424C160.285 31.04 160.066 30.416 160.066 29.552V24.672H159.026V23.184H160.066V20.992H161.906V23.184H164.05V24.672H161.906ZM166.659 22.016C166.329 22.016 166.051 21.904 165.827 21.68C165.603 21.456 165.491 21.1787 165.491 20.848C165.491 20.5173 165.603 20.24 165.827 20.016C166.051 19.792 166.329 19.68 166.659 19.68C166.979 19.68 167.251 19.792 167.475 20.016C167.699 20.24 167.811 20.5173 167.811 20.848C167.811 21.1787 167.699 21.456 167.475 21.68C167.251 21.904 166.979 22.016 166.659 22.016ZM167.555 23.184V32H165.731V23.184H167.555ZM174.398 23.04C175.091 23.04 175.71 23.184 176.254 23.472C176.809 23.76 177.241 24.1867 177.55 24.752C177.859 25.3173 178.014 26 178.014 26.8V32H176.206V27.072C176.206 26.2827 176.009 25.68 175.614 25.264C175.219 24.8373 174.681 24.624 173.998 24.624C173.315 24.624 172.771 24.8373 172.366 25.264C171.971 25.68 171.774 26.2827 171.774 27.072V32H169.95V23.184H171.774V24.192C172.073 23.8293 172.451 23.5467 172.91 23.344C173.379 23.1413 173.875 23.04 174.398 23.04ZM183.893 23.04C184.575 23.04 185.178 23.1787 185.701 23.456C186.234 23.7227 186.65 24.0587 186.949 24.464V23.184H188.789V32.144C188.789 32.9547 188.618 33.6747 188.277 34.304C187.935 34.944 187.439 35.4453 186.789 35.808C186.149 36.1707 185.381 36.352 184.485 36.352C183.29 36.352 182.298 36.0693 181.509 35.504C180.719 34.9493 180.271 34.192 180.165 33.232H181.973C182.111 33.6907 182.405 34.0587 182.853 34.336C183.311 34.624 183.855 34.768 184.485 34.768C185.221 34.768 185.813 34.544 186.261 34.096C186.719 33.648 186.949 32.9973 186.949 32.144V30.672C186.639 31.088 186.218 31.44 185.685 31.728C185.162 32.0053 184.565 32.144 183.893 32.144C183.125 32.144 182.421 31.952 181.781 31.568C181.151 31.1733 180.65 30.6293 180.277 29.936C179.914 29.232 179.733 28.4373 179.733 27.552C179.733 26.6667 179.914 25.8827 180.277 25.2C180.65 24.5173 181.151 23.9893 181.781 23.616C182.421 23.232 183.125 23.04 183.893 23.04ZM186.949 27.584C186.949 26.976 186.821 26.448 186.565 26C186.319 25.552 185.994 25.2107 185.589 24.976C185.183 24.7413 184.746 24.624 184.277 24.624C183.807 24.624 183.37 24.7413 182.965 24.976C182.559 25.2 182.229 25.536 181.973 25.984C181.727 26.4213 181.605 26.944 181.605 27.552C181.605 28.16 181.727 28.6933 181.973 29.152C182.229 29.6107 182.559 29.9627 182.965 30.208C183.381 30.4427 183.818 30.56 184.277 30.56C184.746 30.56 185.183 30.4427 185.589 30.208C185.994 29.9733 186.319 29.632 186.565 29.184C186.821 28.7253 186.949 28.192 186.949 27.584ZM198.541 32.144C197.847 32.144 197.223 32.0213 196.669 31.776C196.125 31.52 195.693 31.1787 195.373 30.752C195.053 30.3147 194.882 29.8293 194.861 29.296H196.749C196.781 29.6693 196.957 29.984 197.277 30.24C197.607 30.4853 198.018 30.608 198.509 30.608C199.021 30.608 199.415 30.512 199.693 30.32C199.981 30.1173 200.125 29.8613 200.125 29.552C200.125 29.2213 199.965 28.976 199.645 28.816C199.335 28.656 198.839 28.48 198.157 28.288C197.495 28.1067 196.957 27.9307 196.541 27.76C196.125 27.5893 195.762 27.328 195.453 26.976C195.154 26.624 195.005 26.16 195.005 25.584C195.005 25.1147 195.143 24.688 195.421 24.304C195.698 23.9093 196.093 23.6 196.605 23.376C197.127 23.152 197.725 23.04 198.397 23.04C199.399 23.04 200.205 23.296 200.813 23.808C201.431 24.3093 201.762 24.9973 201.805 25.872H199.981C199.949 25.4773 199.789 25.1627 199.501 24.928C199.213 24.6933 198.823 24.576 198.333 24.576C197.853 24.576 197.485 24.6667 197.229 24.848C196.973 25.0293 196.845 25.2693 196.845 25.568C196.845 25.8027 196.93 26 197.101 26.16C197.271 26.32 197.479 26.448 197.725 26.544C197.97 26.6293 198.333 26.7413 198.813 26.88C199.453 27.0507 199.975 27.2267 200.381 27.408C200.797 27.5787 201.154 27.8347 201.453 28.176C201.751 28.5173 201.906 28.9707 201.917 29.536C201.917 30.0373 201.778 30.4853 201.501 30.88C201.223 31.2747 200.829 31.584 200.317 31.808C199.815 32.032 199.223 32.144 198.541 32.144ZM206.016 24.672V29.552C206.016 29.8827 206.09 30.1227 206.24 30.272C206.4 30.4107 206.666 30.48 207.04 30.48H208.16V32H206.72C205.898 32 205.269 31.808 204.832 31.424C204.394 31.04 204.176 30.416 204.176 29.552V24.672H203.136V23.184H204.176V20.992H206.016V23.184H208.16V24.672H206.016ZM211.665 24.464C211.931 24.016 212.283 23.6693 212.721 23.424C213.169 23.168 213.697 23.04 214.305 23.04V24.928H213.841C213.126 24.928 212.582 25.1093 212.209 25.472C211.846 25.8347 211.665 26.464 211.665 27.36V32H209.841V23.184H211.665V24.464ZM215.373 27.552C215.373 26.6667 215.555 25.8827 215.917 25.2C216.291 24.5173 216.792 23.9893 217.421 23.616C218.061 23.232 218.765 23.04 219.533 23.04C220.227 23.04 220.829 23.1787 221.341 23.456C221.864 23.7227 222.28 24.0587 222.589 24.464V23.184H224.429V32H222.589V30.688C222.28 31.104 221.859 31.4507 221.325 31.728C220.792 32.0053 220.184 32.144 219.501 32.144C218.744 32.144 218.051 31.952 217.421 31.568C216.792 31.1733 216.291 30.6293 215.917 29.936C215.555 29.232 215.373 28.4373 215.373 27.552ZM222.589 27.584C222.589 26.976 222.461 26.448 222.205 26C221.96 25.552 221.635 25.2107 221.229 24.976C220.824 24.7413 220.387 24.624 219.917 24.624C219.448 24.624 219.011 24.7413 218.605 24.976C218.2 25.2 217.869 25.536 217.613 25.984C217.368 26.4213 217.245 26.944 217.245 27.552C217.245 28.16 217.368 28.6933 217.613 29.152C217.869 29.6107 218.2 29.9627 218.605 30.208C219.021 30.4427 219.459 30.56 219.917 30.56C220.387 30.56 220.824 30.4427 221.229 30.208C221.635 29.9733 221.96 29.632 222.205 29.184C222.461 28.7253 222.589 28.192 222.589 27.584ZM228.953 24.672V29.552C228.953 29.8827 229.028 30.1227 229.177 30.272C229.337 30.4107 229.604 30.48 229.977 30.48H231.097V32H229.657C228.836 32 228.206 31.808 227.769 31.424C227.332 31.04 227.113 30.416 227.113 29.552V24.672H226.073V23.184H227.113V20.992H228.953V23.184H231.097V24.672H228.953ZM240.858 27.376C240.858 27.7067 240.837 28.0053 240.794 28.272H234.058C234.111 28.976 234.373 29.5413 234.842 29.968C235.311 30.3947 235.887 30.608 236.57 30.608C237.551 30.608 238.245 30.1973 238.65 29.376H240.618C240.351 30.1867 239.866 30.8533 239.162 31.376C238.469 31.888 237.605 32.144 236.57 32.144C235.727 32.144 234.97 31.9573 234.298 31.584C233.637 31.2 233.114 30.6667 232.73 29.984C232.357 29.2907 232.17 28.4907 232.17 27.584C232.17 26.6773 232.351 25.8827 232.714 25.2C233.087 24.5067 233.605 23.9733 234.266 23.6C234.938 23.2267 235.706 23.04 236.57 23.04C237.402 23.04 238.143 23.2213 238.794 23.584C239.445 23.9467 239.951 24.4587 240.314 25.12C240.677 25.7707 240.858 26.5227 240.858 27.376ZM238.954 26.8C238.943 26.128 238.703 25.5893 238.234 25.184C237.765 24.7787 237.183 24.576 236.49 24.576C235.861 24.576 235.322 24.7787 234.874 25.184C234.426 25.5787 234.159 26.1173 234.074 26.8H238.954ZM246.205 23.04C246.888 23.04 247.49 23.1787 248.013 23.456C248.546 23.7227 248.962 24.0587 249.261 24.464V23.184H251.101V32.144C251.101 32.9547 250.93 33.6747 250.589 34.304C250.248 34.944 249.752 35.4453 249.101 35.808C248.461 36.1707 247.693 36.352 246.797 36.352C245.602 36.352 244.61 36.0693 243.821 35.504C243.032 34.9493 242.584 34.192 242.477 33.232H244.285C244.424 33.6907 244.717 34.0587 245.165 34.336C245.624 34.624 246.168 34.768 246.797 34.768C247.533 34.768 248.125 34.544 248.573 34.096C249.032 33.648 249.261 32.9973 249.261 32.144V30.672C248.952 31.088 248.53 31.44 247.997 31.728C247.474 32.0053 246.877 32.144 246.205 32.144C245.437 32.144 244.733 31.952 244.093 31.568C243.464 31.1733 242.962 30.6293 242.589 29.936C242.226 29.232 242.045 28.4373 242.045 27.552C242.045 26.6667 242.226 25.8827 242.589 25.2C242.962 24.5173 243.464 23.9893 244.093 23.616C244.733 23.232 245.437 23.04 246.205 23.04ZM249.261 27.584C249.261 26.976 249.133 26.448 248.877 26C248.632 25.552 248.306 25.2107 247.901 24.976C247.496 24.7413 247.058 24.624 246.589 24.624C246.12 24.624 245.682 24.7413 245.277 24.976C244.872 25.2 244.541 25.536 244.285 25.984C244.04 26.4213 243.917 26.944 243.917 27.552C243.917 28.16 244.04 28.6933 244.285 29.152C244.541 29.6107 244.872 29.9627 245.277 30.208C245.693 30.4427 246.13 30.56 246.589 30.56C247.058 30.56 247.496 30.4427 247.901 30.208C248.306 29.9733 248.632 29.632 248.877 29.184C249.133 28.7253 249.261 28.192 249.261 27.584ZM261.433 23.184L256.025 36.144H254.137L255.929 31.856L252.457 23.184H254.489L256.969 29.904L259.545 23.184H261.433Z" fill="#2F281E"/>
</g>
<defs>
<filter id="filter0_d" x="-8" y="-6" width="297" height="75" filterUnits="userSpaceOnUse" color-interpolation-filters="sRGB">
<feFlood flood-opacity="0" result="BackgroundImageFix"/>
<feColorMatrix in="SourceAlpha" type="matrix" values="0 0 0 0 0 0 0 0 0 0 0 0 0 0 0 0 0 0 127 0"/>
<feOffset dy="2"/>
<feGaussianBlur stdDeviation="4"/>
<feColorMatrix type="matrix" values="0 0 0 0 0.337255 0 0 0 0 0.458824 0 0 0 0 0.572549 0 0 0 0.1 0"/>
<feBlend mode="normal" in2="BackgroundImageFix" result="effect1_dropShadow"/>
<feBlend mode="normal" in="SourceGraphic" in2="effect1_dropShadow" result="shape"/>
</filter>
<filter id="filter1_d" x="240" y="48" width="39" height="39" filterUnits="userSpaceOnUse" color-interpolation-filters="sRGB">
<feFlood flood-opacity="0" result="BackgroundImageFix"/>
<feColorMatrix in="SourceAlpha" type="matrix" values="0 0 0 0 0 0 0 0 0 0 0 0 0 0 0 0 0 0 127 0"/>
<feOffset dy="2"/>
<feGaussianBlur stdDeviation="7.5"/>
<feColorMatrix type="matrix" values="0 0 0 0 0.0901961 0 0 0 0 0.227451 0 0 0 0 0.337255 0 0 0 0.1 0"/>
<feBlend mode="normal" in2="BackgroundImageFix" result="effect1_dropShadow"/>
<feBlend mode="normal" in="SourceGraphic" in2="effect1_dropShadow" result="shape"/>
</filter>
<clipPath id="clip0">
<rect width="281" height="70" fill="white"/>
</clipPath>
</defs>
</svg>
