<svg width="321" height="70" viewBox="0 0 321 70" fill="none" xmlns="http://www.w3.org/2000/svg">
<g clip-path="url(#clip0)">
<g filter="url(#filter0_d)">
<path fill-rule="evenodd" clip-rule="evenodd" d="M26.5 0C11.8645 0 0 11.8645 0 26.5C0 41.1355 11.8645 53 26.5 53H249.374C250.441 56.4743 253.676 59 257.5 59C261.324 59 264.559 56.4743 265.626 53H294.5C309.136 53 321 41.1355 321 26.5C321 11.8645 309.136 0 294.5 0H26.5Z" fill="white"/>
</g>
<g filter="url(#filter1_d)">
<path fill-rule="evenodd" clip-rule="evenodd" d="M280.5 70C282.985 70 285 67.9853 285 65.5C285 63.0147 282.985 61 280.5 61C278.015 61 276 63.0147 276 65.5C276 67.9853 278.015 70 280.5 70Z" fill="white"/>
</g>
<path d="M22.1334 21.88V33H20.3094V21.88H22.1334ZM40.5244 24.184L37.7884 33H35.8684L34.0924 26.488L32.3164 33H30.3964L27.6444 24.184H29.5004L31.3404 31.272L33.2124 24.184H35.1164L36.9084 31.24L38.7324 24.184H40.5244ZM42.8155 23.016C42.4848 23.016 42.2075 22.904 41.9835 22.68C41.7595 22.456 41.6475 22.1787 41.6475 21.848C41.6475 21.5173 41.7595 21.24 41.9835 21.016C42.2075 20.792 42.4848 20.68 42.8155 20.68C43.1355 20.68 43.4075 20.792 43.6315 21.016C43.8555 21.24 43.9675 21.5173 43.9675 21.848C43.9675 22.1787 43.8555 22.456 43.6315 22.68C43.4075 22.904 43.1355 23.016 42.8155 23.016ZM43.7115 24.184V33H41.8875V24.184H43.7115ZM47.9303 21.16V33H46.1063V21.16H47.9303ZM52.149 21.16V33H50.325V21.16H52.149ZM58.092 28.552C58.092 27.6667 58.2733 26.8827 58.636 26.2C59.0093 25.5173 59.5107 24.9893 60.14 24.616C60.78 24.232 61.4893 24.04 62.268 24.04C62.844 24.04 63.4093 24.168 63.964 24.424C64.5293 24.6693 64.9773 25 65.308 25.416V21.16H67.148V33H65.308V31.672C65.0093 32.0987 64.5933 32.4507 64.06 32.728C63.5373 33.0053 62.9347 33.144 62.252 33.144C61.484 33.144 60.78 32.952 60.14 32.568C59.5107 32.1733 59.0093 31.6293 58.636 30.936C58.2733 30.232 58.092 29.4373 58.092 28.552ZM65.308 28.584C65.308 27.976 65.18 27.448 64.924 27C64.6787 26.552 64.3533 26.2107 63.948 25.976C63.5427 25.7413 63.1053 25.624 62.636 25.624C62.1667 25.624 61.7293 25.7413 61.324 25.976C60.9187 26.2 60.588 26.536 60.332 26.984C60.0867 27.4213 59.964 27.944 59.964 28.552C59.964 29.16 60.0867 29.6933 60.332 30.152C60.588 30.6107 60.9187 30.9627 61.324 31.208C61.74 31.4427 62.1773 31.56 62.636 31.56C63.1053 31.56 63.5427 31.4427 63.948 31.208C64.3533 30.9733 64.6787 30.632 64.924 30.184C65.18 29.7253 65.308 29.192 65.308 28.584ZM77.6238 28.376C77.6238 28.7067 77.6024 29.0053 77.5598 29.272H70.8238C70.8771 29.976 71.1384 30.5413 71.6078 30.968C72.0771 31.3947 72.6531 31.608 73.3358 31.608C74.3171 31.608 75.0104 31.1973 75.4158 30.376H77.3837C77.1171 31.1867 76.6318 31.8533 75.9278 32.376C75.2344 32.888 74.3704 33.144 73.3358 33.144C72.4931 33.144 71.7358 32.9573 71.0638 32.584C70.4024 32.2 69.8798 31.6667 69.4958 30.984C69.1224 30.2907 68.9358 29.4907 68.9358 28.584C68.9358 27.6773 69.1171 26.8827 69.4798 26.2C69.8531 25.5067 70.3704 24.9733 71.0318 24.6C71.7038 24.2267 72.4718 24.04 73.3358 24.04C74.1678 24.04 74.9091 24.2213 75.5598 24.584C76.2104 24.9467 76.7171 25.4587 77.0798 26.12C77.4424 26.7707 77.6238 27.5227 77.6238 28.376ZM75.7198 27.8C75.7091 27.128 75.4691 26.5893 74.9998 26.184C74.5304 25.7787 73.9491 25.576 73.2558 25.576C72.6264 25.576 72.0878 25.7787 71.6398 26.184C71.1918 26.5787 70.9251 27.1173 70.8398 27.8H75.7198ZM83.1148 25.672H81.4828V33H79.6428V25.672H78.6028V24.184H79.6428V23.56C79.6428 22.5467 79.9094 21.8107 80.4428 21.352C80.9868 20.8827 81.8348 20.648 82.9868 20.648V22.168C82.4321 22.168 82.0428 22.2747 81.8188 22.488C81.5948 22.6907 81.4828 23.048 81.4828 23.56V24.184H83.1148V25.672ZM85.6593 23.016C85.3286 23.016 85.0513 22.904 84.8273 22.68C84.6033 22.456 84.4913 22.1787 84.4913 21.848C84.4913 21.5173 84.6033 21.24 84.8273 21.016C85.0513 20.792 85.3286 20.68 85.6593 20.68C85.9793 20.68 86.2513 20.792 86.4753 21.016C86.6993 21.24 86.8113 21.5173 86.8113 21.848C86.8113 22.1787 86.6993 22.456 86.4753 22.68C86.2513 22.904 85.9793 23.016 85.6593 23.016ZM86.5553 24.184V33H84.7313V24.184H86.5553ZM93.398 24.04C94.0913 24.04 94.71 24.184 95.254 24.472C95.8087 24.76 96.2407 25.1867 96.55 25.752C96.8593 26.3173 97.014 27 97.014 27.8V33H95.206V28.072C95.206 27.2827 95.0087 26.68 94.614 26.264C94.2193 25.8373 93.6807 25.624 92.998 25.624C92.3153 25.624 91.7713 25.8373 91.366 26.264C90.9713 26.68 90.774 27.2827 90.774 28.072V33H88.95V24.184H90.774V25.192C91.0727 24.8293 91.4513 24.5467 91.91 24.344C92.3793 24.1413 92.8753 24.04 93.398 24.04ZM107.421 28.376C107.421 28.7067 107.399 29.0053 107.357 29.272H100.621C100.674 29.976 100.935 30.5413 101.405 30.968C101.874 31.3947 102.45 31.608 103.133 31.608C104.114 31.608 104.807 31.1973 105.213 30.376H107.181C106.914 31.1867 106.429 31.8533 105.725 32.376C105.031 32.888 104.167 33.144 103.133 33.144C102.29 33.144 101.533 32.9573 100.861 32.584C100.199 32.2 99.6766 31.6667 99.2926 30.984C98.9193 30.2907 98.7326 29.4907 98.7326 28.584C98.7326 27.6773 98.914 26.8827 99.2766 26.2C99.65 25.5067 100.167 24.9733 100.829 24.6C101.501 24.2267 102.269 24.04 103.133 24.04C103.965 24.04 104.706 24.2213 105.357 24.584C106.007 24.9467 106.514 25.4587 106.877 26.12C107.239 26.7707 107.421 27.5227 107.421 28.376ZM105.517 27.8C105.506 27.128 105.266 26.5893 104.797 26.184C104.327 25.7787 103.746 25.576 103.053 25.576C102.423 25.576 101.885 25.7787 101.437 26.184C100.989 26.5787 100.722 27.1173 100.637 27.8H105.517ZM115.5 25.672V30.552C115.5 30.8827 115.575 31.1227 115.724 31.272C115.884 31.4107 116.151 31.48 116.524 31.48H117.644V33H116.204C115.383 33 114.753 32.808 114.316 32.424C113.879 32.04 113.66 31.416 113.66 30.552V25.672H112.62V24.184H113.66V21.992H115.5V24.184H117.644V25.672H115.5ZM123.885 24.04C124.557 24.04 125.154 24.184 125.677 24.472C126.21 24.76 126.626 25.1867 126.925 25.752C127.234 26.3173 127.389 27 127.389 27.8V33H125.581V28.072C125.581 27.2827 125.384 26.68 124.989 26.264C124.594 25.8373 124.056 25.624 123.373 25.624C122.69 25.624 122.146 25.8373 121.741 26.264C121.346 26.68 121.149 27.2827 121.149 28.072V33H119.325V21.16H121.149V25.208C121.458 24.8347 121.848 24.5467 122.317 24.344C122.797 24.1413 123.32 24.04 123.885 24.04ZM137.796 28.376C137.796 28.7067 137.774 29.0053 137.732 29.272H130.996C131.049 29.976 131.31 30.5413 131.78 30.968C132.249 31.3947 132.825 31.608 133.508 31.608C134.489 31.608 135.182 31.1973 135.588 30.376H137.556C137.289 31.1867 136.804 31.8533 136.1 32.376C135.406 32.888 134.542 33.144 133.508 33.144C132.665 33.144 131.908 32.9573 131.236 32.584C130.574 32.2 130.052 31.6667 129.668 30.984C129.294 30.2907 129.108 29.4907 129.108 28.584C129.108 27.6773 129.289 26.8827 129.652 26.2C130.025 25.5067 130.542 24.9733 131.204 24.6C131.876 24.2267 132.644 24.04 133.508 24.04C134.34 24.04 135.081 24.2213 135.732 24.584C136.382 24.9467 136.889 25.4587 137.252 26.12C137.614 26.7707 137.796 27.5227 137.796 28.376ZM135.892 27.8C135.881 27.128 135.641 26.5893 135.172 26.184C134.702 25.7787 134.121 25.576 133.428 25.576C132.798 25.576 132.26 25.7787 131.812 26.184C131.364 26.5787 131.097 27.1173 131.012 27.8H135.892ZM145.571 25.48C145.88 25.0747 146.302 24.7333 146.835 24.456C147.368 24.1787 147.971 24.04 148.643 24.04C149.411 24.04 150.11 24.232 150.739 24.616C151.379 24.9893 151.88 25.5173 152.243 26.2C152.606 26.8827 152.787 27.6667 152.787 28.552C152.787 29.4373 152.606 30.232 152.243 30.936C151.88 31.6293 151.379 32.1733 150.739 32.568C150.11 32.952 149.411 33.144 148.643 33.144C147.971 33.144 147.374 33.0107 146.851 32.744C146.328 32.4667 145.902 32.1253 145.571 31.72V37.192H143.747V24.184H145.571V25.48ZM150.931 28.552C150.931 27.944 150.803 27.4213 150.547 26.984C150.302 26.536 149.971 26.2 149.555 25.976C149.15 25.7413 148.712 25.624 148.243 25.624C147.784 25.624 147.347 25.7413 146.931 25.976C146.526 26.2107 146.195 26.552 145.939 27C145.694 27.448 145.571 27.976 145.571 28.584C145.571 29.192 145.694 29.7253 145.939 30.184C146.195 30.632 146.526 30.9733 146.931 31.208C147.347 31.4427 147.784 31.56 148.243 31.56C148.712 31.56 149.15 31.4427 149.555 31.208C149.971 30.9627 150.302 30.6107 150.547 30.152C150.803 29.6933 150.931 29.16 150.931 28.552ZM156.415 25.464C156.681 25.016 157.033 24.6693 157.471 24.424C157.919 24.168 158.447 24.04 159.055 24.04V25.928H158.591C157.876 25.928 157.332 26.1093 156.959 26.472C156.596 26.8347 156.415 27.464 156.415 28.36V33H154.591V24.184H156.415V25.464ZM164.555 33.144C163.723 33.144 162.971 32.9573 162.299 32.584C161.627 32.2 161.099 31.6667 160.715 30.984C160.331 30.2907 160.139 29.4907 160.139 28.584C160.139 27.688 160.337 26.8933 160.731 26.2C161.126 25.5067 161.665 24.9733 162.347 24.6C163.03 24.2267 163.793 24.04 164.635 24.04C165.478 24.04 166.241 24.2267 166.923 24.6C167.606 24.9733 168.145 25.5067 168.539 26.2C168.934 26.8933 169.131 27.688 169.131 28.584C169.131 29.48 168.929 30.2747 168.523 30.968C168.118 31.6613 167.563 32.2 166.859 32.584C166.166 32.9573 165.398 33.144 164.555 33.144ZM164.555 31.56C165.025 31.56 165.462 31.448 165.867 31.224C166.283 31 166.619 30.664 166.875 30.216C167.131 29.768 167.259 29.224 167.259 28.584C167.259 27.944 167.137 27.4053 166.891 26.968C166.646 26.52 166.321 26.184 165.915 25.96C165.51 25.736 165.073 25.624 164.603 25.624C164.134 25.624 163.697 25.736 163.291 25.96C162.897 26.184 162.582 26.52 162.347 26.968C162.113 27.4053 161.995 27.944 161.995 28.584C161.995 29.5333 162.235 30.2693 162.715 30.792C163.206 31.304 163.819 31.56 164.555 31.56ZM174.63 25.672H172.998V33H171.158V25.672H170.118V24.184H171.158V23.56C171.158 22.5467 171.425 21.8107 171.958 21.352C172.502 20.8827 173.35 20.648 174.502 20.648V22.168C173.948 22.168 173.558 22.2747 173.334 22.488C173.11 22.6907 172.998 23.048 172.998 23.56V24.184H174.63V25.672ZM177.175 23.016C176.844 23.016 176.567 22.904 176.343 22.68C176.119 22.456 176.007 22.1787 176.007 21.848C176.007 21.5173 176.119 21.24 176.343 21.016C176.567 20.792 176.844 20.68 177.175 20.68C177.495 20.68 177.767 20.792 177.991 21.016C178.215 21.24 178.327 21.5173 178.327 21.848C178.327 22.1787 178.215 22.456 177.991 22.68C177.767 22.904 177.495 23.016 177.175 23.016ZM178.071 24.184V33H176.247V24.184H178.071ZM182.29 21.16V33H180.466V21.16H182.29ZM192.764 28.376C192.764 28.7067 192.743 29.0053 192.7 29.272H185.964C186.018 29.976 186.279 30.5413 186.748 30.968C187.218 31.3947 187.794 31.608 188.476 31.608C189.458 31.608 190.151 31.1973 190.556 30.376H192.524C192.258 31.1867 191.772 31.8533 191.068 32.376C190.375 32.888 189.511 33.144 188.476 33.144C187.634 33.144 186.876 32.9573 186.204 32.584C185.543 32.2 185.02 31.6667 184.636 30.984C184.263 30.2907 184.076 29.4907 184.076 28.584C184.076 27.6773 184.258 26.8827 184.62 26.2C184.994 25.5067 185.511 24.9733 186.172 24.6C186.844 24.2267 187.612 24.04 188.476 24.04C189.308 24.04 190.05 24.2213 190.7 24.584C191.351 24.9467 191.858 25.4587 192.22 26.12C192.583 26.7707 192.764 27.5227 192.764 28.376ZM190.86 27.8C190.85 27.128 190.61 26.5893 190.14 26.184C189.671 25.7787 189.09 25.576 188.396 25.576C187.767 25.576 187.228 25.7787 186.78 26.184C186.332 26.5787 186.066 27.1173 185.98 27.8H190.86ZM202.54 33.144C201.708 33.144 200.956 32.9573 200.284 32.584C199.612 32.2 199.084 31.6667 198.7 30.984C198.316 30.2907 198.124 29.4907 198.124 28.584C198.124 27.688 198.321 26.8933 198.716 26.2C199.11 25.5067 199.649 24.9733 200.332 24.6C201.014 24.2267 201.777 24.04 202.62 24.04C203.462 24.04 204.225 24.2267 204.908 24.6C205.59 24.9733 206.129 25.5067 206.524 26.2C206.918 26.8933 207.116 27.688 207.116 28.584C207.116 29.48 206.913 30.2747 206.508 30.968C206.102 31.6613 205.548 32.2 204.844 32.584C204.15 32.9573 203.382 33.144 202.54 33.144ZM202.54 31.56C203.009 31.56 203.446 31.448 203.852 31.224C204.268 31 204.604 30.664 204.86 30.216C205.116 29.768 205.244 29.224 205.244 28.584C205.244 27.944 205.121 27.4053 204.876 26.968C204.63 26.52 204.305 26.184 203.9 25.96C203.494 25.736 203.057 25.624 202.588 25.624C202.118 25.624 201.681 25.736 201.276 25.96C200.881 26.184 200.566 26.52 200.332 26.968C200.097 27.4053 199.98 27.944 199.98 28.584C199.98 29.5333 200.22 30.2693 200.7 30.792C201.19 31.304 201.804 31.56 202.54 31.56ZM212.615 25.672H210.983V33H209.143V25.672H208.103V24.184H209.143V23.56C209.143 22.5467 209.409 21.8107 209.943 21.352C210.487 20.8827 211.335 20.648 212.487 20.648V22.168C211.932 22.168 211.543 22.2747 211.319 22.488C211.095 22.6907 210.983 23.048 210.983 23.56V24.184H212.615V25.672ZM226.324 24.184L220.916 37.144H219.028L220.82 32.856L217.348 24.184H219.38L221.86 30.904L224.436 24.184H226.324ZM231.524 33.144C230.692 33.144 229.94 32.9573 229.268 32.584C228.596 32.2 228.068 31.6667 227.684 30.984C227.3 30.2907 227.108 29.4907 227.108 28.584C227.108 27.688 227.305 26.8933 227.7 26.2C228.095 25.5067 228.633 24.9733 229.316 24.6C229.999 24.2267 230.761 24.04 231.604 24.04C232.447 24.04 233.209 24.2267 233.892 24.6C234.575 24.9733 235.113 25.5067 235.508 26.2C235.903 26.8933 236.1 27.688 236.1 28.584C236.1 29.48 235.897 30.2747 235.492 30.968C235.087 31.6613 234.532 32.2 233.828 32.584C233.135 32.9573 232.367 33.144 231.524 33.144ZM231.524 31.56C231.993 31.56 232.431 31.448 232.836 31.224C233.252 31 233.588 30.664 233.844 30.216C234.1 29.768 234.228 29.224 234.228 28.584C234.228 27.944 234.105 27.4053 233.86 26.968C233.615 26.52 233.289 26.184 232.884 25.96C232.479 25.736 232.041 25.624 231.572 25.624C231.103 25.624 230.665 25.736 230.26 25.96C229.865 26.184 229.551 26.52 229.316 26.968C229.081 27.4053 228.964 27.944 228.964 28.584C228.964 29.5333 229.204 30.2693 229.684 30.792C230.175 31.304 230.788 31.56 231.524 31.56ZM245.887 24.184V33H244.063V31.96C243.775 32.3227 243.396 32.6107 242.927 32.824C242.468 33.0267 241.978 33.128 241.455 33.128C240.762 33.128 240.138 32.984 239.583 32.696C239.039 32.408 238.607 31.9813 238.287 31.416C237.978 30.8507 237.823 30.168 237.823 29.368V24.184H239.631V29.096C239.631 29.8853 239.828 30.4933 240.223 30.92C240.618 31.336 241.156 31.544 241.839 31.544C242.522 31.544 243.06 31.336 243.455 30.92C243.86 30.4933 244.063 29.8853 244.063 29.096V24.184H245.887ZM250.118 25.464C250.384 25.016 250.736 24.6693 251.174 24.424C251.622 24.168 252.15 24.04 252.758 24.04V25.928H252.294C251.579 25.928 251.035 26.1093 250.662 26.472C250.299 26.8347 250.118 27.464 250.118 28.36V33H248.294V24.184H250.118V25.464ZM266.575 24.184V33H264.751V31.96C264.463 32.3227 264.084 32.6107 263.615 32.824C263.156 33.0267 262.665 33.128 262.143 33.128C261.449 33.128 260.825 32.984 260.271 32.696C259.727 32.408 259.295 31.9813 258.975 31.416C258.665 30.8507 258.511 30.168 258.511 29.368V24.184H260.319V29.096C260.319 29.8853 260.516 30.4933 260.911 30.92C261.305 31.336 261.844 31.544 262.527 31.544C263.209 31.544 263.748 31.336 264.143 30.92C264.548 30.4933 264.751 29.8853 264.751 29.096V24.184H266.575ZM272.181 33.144C271.488 33.144 270.864 33.0213 270.309 32.776C269.765 32.52 269.333 32.1787 269.013 31.752C268.693 31.3147 268.523 30.8293 268.501 30.296H270.389C270.421 30.6693 270.597 30.984 270.917 31.24C271.248 31.4853 271.659 31.608 272.149 31.608C272.661 31.608 273.056 31.512 273.333 31.32C273.621 31.1173 273.765 30.8613 273.765 30.552C273.765 30.2213 273.605 29.976 273.285 29.816C272.976 29.656 272.48 29.48 271.797 29.288C271.136 29.1067 270.597 28.9307 270.181 28.76C269.765 28.5893 269.403 28.328 269.093 27.976C268.795 27.624 268.645 27.16 268.645 26.584C268.645 26.1147 268.784 25.688 269.061 25.304C269.339 24.9093 269.733 24.6 270.245 24.376C270.768 24.152 271.365 24.04 272.037 24.04C273.04 24.04 273.845 24.296 274.453 24.808C275.072 25.3093 275.403 25.9973 275.445 26.872H273.621C273.589 26.4773 273.429 26.1627 273.141 25.928C272.853 25.6933 272.464 25.576 271.973 25.576C271.493 25.576 271.125 25.6667 270.869 25.848C270.613 26.0293 270.485 26.2693 270.485 26.568C270.485 26.8027 270.571 27 270.741 27.16C270.912 27.32 271.12 27.448 271.365 27.544C271.611 27.6293 271.973 27.7413 272.453 27.88C273.093 28.0507 273.616 28.2267 274.021 28.408C274.437 28.5787 274.795 28.8347 275.093 29.176C275.392 29.5173 275.547 29.9707 275.557 30.536C275.557 31.0373 275.419 31.4853 275.141 31.88C274.864 32.2747 274.469 32.584 273.957 32.808C273.456 33.032 272.864 33.144 272.181 33.144ZM285.608 28.376C285.608 28.7067 285.587 29.0053 285.544 29.272H278.808C278.861 29.976 279.123 30.5413 279.592 30.968C280.061 31.3947 280.637 31.608 281.32 31.608C282.301 31.608 282.995 31.1973 283.4 30.376H285.368C285.101 31.1867 284.616 31.8533 283.912 32.376C283.219 32.888 282.355 33.144 281.32 33.144C280.477 33.144 279.72 32.9573 279.048 32.584C278.387 32.2 277.864 31.6667 277.48 30.984C277.107 30.2907 276.92 29.4907 276.92 28.584C276.92 27.6773 277.101 26.8827 277.464 26.2C277.837 25.5067 278.355 24.9733 279.016 24.6C279.688 24.2267 280.456 24.04 281.32 24.04C282.152 24.04 282.893 24.2213 283.544 24.584C284.195 24.9467 284.701 25.4587 285.064 26.12C285.427 26.7707 285.608 27.5227 285.608 28.376ZM283.704 27.8C283.693 27.128 283.453 26.5893 282.984 26.184C282.515 25.7787 281.933 25.576 281.24 25.576C280.611 25.576 280.072 25.7787 279.624 26.184C279.176 26.5787 278.909 27.1173 278.824 27.8H283.704ZM289.227 25.464C289.494 25.016 289.846 24.6693 290.283 24.424C290.731 24.168 291.259 24.04 291.867 24.04V25.928H291.403C290.688 25.928 290.144 26.1093 289.771 26.472C289.408 26.8347 289.227 27.464 289.227 28.36V33H287.403V24.184H289.227V25.464ZM296.744 33.144C296.05 33.144 295.426 33.0213 294.872 32.776C294.328 32.52 293.896 32.1787 293.576 31.752C293.256 31.3147 293.085 30.8293 293.064 30.296H294.952C294.984 30.6693 295.16 30.984 295.48 31.24C295.81 31.4853 296.221 31.608 296.712 31.608C297.224 31.608 297.618 31.512 297.896 31.32C298.184 31.1173 298.328 30.8613 298.328 30.552C298.328 30.2213 298.168 29.976 297.848 29.816C297.538 29.656 297.042 29.48 296.36 29.288C295.698 29.1067 295.16 28.9307 294.744 28.76C294.328 28.5893 293.965 28.328 293.656 27.976C293.357 27.624 293.208 27.16 293.208 26.584C293.208 26.1147 293.346 25.688 293.624 25.304C293.901 24.9093 294.296 24.6 294.808 24.376C295.33 24.152 295.928 24.04 296.6 24.04C297.602 24.04 298.408 24.296 299.016 24.808C299.634 25.3093 299.965 25.9973 300.008 26.872H298.184C298.152 26.4773 297.992 26.1627 297.704 25.928C297.416 25.6933 297.026 25.576 296.536 25.576C296.056 25.576 295.688 25.6667 295.432 25.848C295.176 26.0293 295.048 26.2693 295.048 26.568C295.048 26.8027 295.133 27 295.304 27.16C295.474 27.32 295.682 27.448 295.928 27.544C296.173 27.6293 296.536 27.7413 297.016 27.88C297.656 28.0507 298.178 28.2267 298.584 28.408C299 28.5787 299.357 28.8347 299.656 29.176C299.954 29.5173 300.109 29.9707 300.12 30.536C300.12 31.0373 299.981 31.4853 299.704 31.88C299.426 32.2747 299.032 32.584 298.52 32.808C298.018 33.032 297.426 33.144 296.744 33.144Z" fill="#2F281E"/>
</g>
<defs>
<filter id="filter0_d" x="-8" y="-6" width="337" height="75" filterUnits="userSpaceOnUse" color-interpolation-filters="sRGB">
<feFlood flood-opacity="0" result="BackgroundImageFix"/>
<feColorMatrix in="SourceAlpha" type="matrix" values="0 0 0 0 0 0 0 0 0 0 0 0 0 0 0 0 0 0 127 0"/>
<feOffset dy="2"/>
<feGaussianBlur stdDeviation="4"/>
<feColorMatrix type="matrix" values="0 0 0 0 0.337255 0 0 0 0 0.458824 0 0 0 0 0.572549 0 0 0 0.1 0"/>
<feBlend mode="normal" in2="BackgroundImageFix" result="effect1_dropShadow"/>
<feBlend mode="normal" in="SourceGraphic" in2="effect1_dropShadow" result="shape"/>
</filter>
<filter id="filter1_d" x="261" y="48" width="39" height="39" filterUnits="userSpaceOnUse" color-interpolation-filters="sRGB">
<feFlood flood-opacity="0" result="BackgroundImageFix"/>
<feColorMatrix in="SourceAlpha" type="matrix" values="0 0 0 0 0 0 0 0 0 0 0 0 0 0 0 0 0 0 127 0"/>
<feOffset dy="2"/>
<feGaussianBlur stdDeviation="7.5"/>
<feColorMatrix type="matrix" values="0 0 0 0 0.0901961 0 0 0 0 0.227451 0 0 0 0 0.337255 0 0 0 0.1 0"/>
<feBlend mode="normal" in2="BackgroundImageFix" result="effect1_dropShadow"/>
<feBlend mode="normal" in="SourceGraphic" in2="effect1_dropShadow" result="shape"/>
</filter>
<clipPath id="clip0">
<rect width="321" height="70" fill="white"/>
</clipPath>
</defs>
</svg>
