<svg width="263" height="70" viewBox="0 0 263 70" fill="none" xmlns="http://www.w3.org/2000/svg">
<g clip-path="url(#clip0)">
<g filter="url(#filter0_d)">
<path fill-rule="evenodd" clip-rule="evenodd" d="M26.5 0C11.8645 0 0 11.8645 0 26.5C0 41.1355 11.8645 53 26.5 53H191.374C192.441 56.4743 195.676 59 199.5 59C203.324 59 206.559 56.4743 207.626 53H236.5C251.136 53 263 41.1355 263 26.5C263 11.8645 251.136 0 236.5 0H26.5Z" fill="white"/>
</g>
<g filter="url(#filter1_d)">
<path fill-rule="evenodd" clip-rule="evenodd" d="M222.5 70C224.985 70 227 67.9853 227 65.5C227 63.0147 224.985 61 222.5 61C220.015 61 218 63.0147 218 65.5C218 67.9853 220.015 70 222.5 70Z" fill="white"/>
</g>
<path d="M36.6178 21.88V33H34.7938V21.88H36.6178ZM42.5608 28.584C42.5608 27.6773 42.7421 26.8827 43.1048 26.2C43.4781 25.5067 43.9901 24.9733 44.6408 24.6C45.2914 24.2267 46.0381 24.04 46.8808 24.04C47.9474 24.04 48.8274 24.296 49.5208 24.808C50.2248 25.3093 50.6994 26.0293 50.9448 26.968H48.9768C48.8168 26.5307 48.5608 26.1893 48.2088 25.944C47.8568 25.6987 47.4141 25.576 46.8808 25.576C46.1341 25.576 45.5368 25.8427 45.0888 26.376C44.6514 26.8987 44.4328 27.6347 44.4328 28.584C44.4328 29.5333 44.6514 30.2747 45.0888 30.808C45.5368 31.3413 46.1341 31.608 46.8808 31.608C47.9368 31.608 48.6354 31.144 48.9768 30.216H50.9448C50.6888 31.112 50.2088 31.8267 49.5048 32.36C48.8008 32.8827 47.9261 33.144 46.8808 33.144C46.0381 33.144 45.2914 32.9573 44.6408 32.584C43.9901 32.2 43.4781 31.6667 43.1048 30.984C42.7421 30.2907 42.5608 29.4907 42.5608 28.584ZM52.1545 28.552C52.1545 27.6667 52.3358 26.8827 52.6985 26.2C53.0718 25.5173 53.5732 24.9893 54.2025 24.616C54.8425 24.232 55.5465 24.04 56.3145 24.04C57.0078 24.04 57.6105 24.1787 58.1225 24.456C58.6452 24.7227 59.0612 25.0587 59.3705 25.464V24.184H61.2105V33H59.3705V31.688C59.0612 32.104 58.6398 32.4507 58.1065 32.728C57.5732 33.0053 56.9652 33.144 56.2825 33.144C55.5252 33.144 54.8318 32.952 54.2025 32.568C53.5732 32.1733 53.0718 31.6293 52.6985 30.936C52.3358 30.232 52.1545 29.4373 52.1545 28.552ZM59.3705 28.584C59.3705 27.976 59.2425 27.448 58.9865 27C58.7412 26.552 58.4158 26.2107 58.0105 25.976C57.6052 25.7413 57.1678 25.624 56.6985 25.624C56.2292 25.624 55.7918 25.7413 55.3865 25.976C54.9812 26.2 54.6505 26.536 54.3945 26.984C54.1492 27.4213 54.0265 27.944 54.0265 28.552C54.0265 29.16 54.1492 29.6933 54.3945 30.152C54.6505 30.6107 54.9812 30.9627 55.3865 31.208C55.8025 31.4427 56.2398 31.56 56.6985 31.56C57.1678 31.56 57.6052 31.4427 58.0105 31.208C58.4158 30.9733 58.7412 30.632 58.9865 30.184C59.2425 29.7253 59.3705 29.192 59.3705 28.584ZM68.0543 24.04C68.7476 24.04 69.3663 24.184 69.9103 24.472C70.4649 24.76 70.8969 25.1867 71.2063 25.752C71.5156 26.3173 71.6703 27 71.6703 27.8V33H69.8623V28.072C69.8623 27.2827 69.6649 26.68 69.2703 26.264C68.8756 25.8373 68.3369 25.624 67.6543 25.624C66.9716 25.624 66.4276 25.8373 66.0223 26.264C65.6276 26.68 65.4303 27.2827 65.4303 28.072V33H63.6063V24.184H65.4303V25.192C65.7289 24.8293 66.1076 24.5467 66.5663 24.344C67.0356 24.1413 67.5316 24.04 68.0543 24.04ZM77.5451 28.552C77.5451 27.6667 77.7265 26.8827 78.0891 26.2C78.4625 25.5173 78.9638 24.9893 79.5931 24.616C80.2331 24.232 80.9425 24.04 81.7211 24.04C82.2971 24.04 82.8625 24.168 83.4171 24.424C83.9825 24.6693 84.4305 25 84.7611 25.416V21.16H86.6011V33H84.7611V31.672C84.4625 32.0987 84.0465 32.4507 83.5131 32.728C82.9905 33.0053 82.3878 33.144 81.7051 33.144C80.9371 33.144 80.2331 32.952 79.5931 32.568C78.9638 32.1733 78.4625 31.6293 78.0891 30.936C77.7265 30.232 77.5451 29.4373 77.5451 28.552ZM84.7611 28.584C84.7611 27.976 84.6331 27.448 84.3771 27C84.1318 26.552 83.8065 26.2107 83.4011 25.976C82.9958 25.7413 82.5585 25.624 82.0891 25.624C81.6198 25.624 81.1825 25.7413 80.7771 25.976C80.3718 26.2 80.0411 26.536 79.7851 26.984C79.5398 27.4213 79.4171 27.944 79.4171 28.552C79.4171 29.16 79.5398 29.6933 79.7851 30.152C80.0411 30.6107 80.3718 30.9627 80.7771 31.208C81.1931 31.4427 81.6305 31.56 82.0891 31.56C82.5585 31.56 82.9958 31.4427 83.4011 31.208C83.8065 30.9733 84.1318 30.632 84.3771 30.184C84.6331 29.7253 84.7611 29.192 84.7611 28.584ZM97.0769 28.376C97.0769 28.7067 97.0555 29.0053 97.0129 29.272H90.2769C90.3302 29.976 90.5915 30.5413 91.0609 30.968C91.5302 31.3947 92.1062 31.608 92.7889 31.608C93.7702 31.608 94.4635 31.1973 94.8689 30.376H96.8369C96.5702 31.1867 96.0849 31.8533 95.3809 32.376C94.6875 32.888 93.8235 33.144 92.7889 33.144C91.9462 33.144 91.1889 32.9573 90.5169 32.584C89.8555 32.2 89.3329 31.6667 88.9489 30.984C88.5755 30.2907 88.3889 29.4907 88.3889 28.584C88.3889 27.6773 88.5702 26.8827 88.9329 26.2C89.3062 25.5067 89.8235 24.9733 90.4849 24.6C91.1569 24.2267 91.9249 24.04 92.7889 24.04C93.6209 24.04 94.3622 24.2213 95.0129 24.584C95.6635 24.9467 96.1702 25.4587 96.5329 26.12C96.8955 26.7707 97.0769 27.5227 97.0769 28.376ZM95.1729 27.8C95.1622 27.128 94.9222 26.5893 94.4529 26.184C93.9835 25.7787 93.4022 25.576 92.7089 25.576C92.0795 25.576 91.5409 25.7787 91.0929 26.184C90.6449 26.5787 90.3782 27.1173 90.2929 27.8H95.1729ZM102.072 33.144C101.379 33.144 100.755 33.0213 100.2 32.776C99.6559 32.52 99.2239 32.1787 98.9039 31.752C98.5839 31.3147 98.4132 30.8293 98.3919 30.296H100.28C100.312 30.6693 100.488 30.984 100.808 31.24C101.139 31.4853 101.549 31.608 102.04 31.608C102.552 31.608 102.947 31.512 103.224 31.32C103.512 31.1173 103.656 30.8613 103.656 30.552C103.656 30.2213 103.496 29.976 103.176 29.816C102.867 29.656 102.371 29.48 101.688 29.288C101.027 29.1067 100.488 28.9307 100.072 28.76C99.6559 28.5893 99.2932 28.328 98.9839 27.976C98.6852 27.624 98.5359 27.16 98.5359 26.584C98.5359 26.1147 98.6745 25.688 98.9519 25.304C99.2292 24.9093 99.6239 24.6 100.136 24.376C100.659 24.152 101.256 24.04 101.928 24.04C102.931 24.04 103.736 24.296 104.344 24.808C104.963 25.3093 105.293 25.9973 105.336 26.872H103.512C103.48 26.4773 103.32 26.1627 103.032 25.928C102.744 25.6933 102.355 25.576 101.864 25.576C101.384 25.576 101.016 25.6667 100.76 25.848C100.504 26.0293 100.376 26.2693 100.376 26.568C100.376 26.8027 100.461 27 100.632 27.16C100.803 27.32 101.011 27.448 101.256 27.544C101.501 27.6293 101.864 27.7413 102.344 27.88C102.984 28.0507 103.507 28.2267 103.912 28.408C104.328 28.5787 104.685 28.8347 104.984 29.176C105.283 29.5173 105.437 29.9707 105.448 30.536C105.448 31.0373 105.309 31.4853 105.032 31.88C104.755 32.2747 104.36 32.584 103.848 32.808C103.347 33.032 102.755 33.144 102.072 33.144ZM108.347 23.016C108.016 23.016 107.739 22.904 107.515 22.68C107.291 22.456 107.179 22.1787 107.179 21.848C107.179 21.5173 107.291 21.24 107.515 21.016C107.739 20.792 108.016 20.68 108.347 20.68C108.667 20.68 108.939 20.792 109.163 21.016C109.387 21.24 109.499 21.5173 109.499 21.848C109.499 22.1787 109.387 22.456 109.163 22.68C108.939 22.904 108.667 23.016 108.347 23.016ZM109.243 24.184V33H107.419V24.184H109.243ZM115.19 24.04C115.872 24.04 116.475 24.1787 116.998 24.456C117.531 24.7227 117.947 25.0587 118.246 25.464V24.184H120.086V33.144C120.086 33.9547 119.915 34.6747 119.574 35.304C119.232 35.944 118.736 36.4453 118.086 36.808C117.446 37.1707 116.678 37.352 115.782 37.352C114.587 37.352 113.595 37.0693 112.806 36.504C112.016 35.9493 111.568 35.192 111.462 34.232H113.27C113.408 34.6907 113.702 35.0587 114.15 35.336C114.608 35.624 115.152 35.768 115.782 35.768C116.518 35.768 117.11 35.544 117.558 35.096C118.016 34.648 118.246 33.9973 118.246 33.144V31.672C117.936 32.088 117.515 32.44 116.982 32.728C116.459 33.0053 115.862 33.144 115.19 33.144C114.422 33.144 113.718 32.952 113.078 32.568C112.448 32.1733 111.947 31.6293 111.574 30.936C111.211 30.232 111.03 29.4373 111.03 28.552C111.03 27.6667 111.211 26.8827 111.574 26.2C111.947 25.5173 112.448 24.9893 113.078 24.616C113.718 24.232 114.422 24.04 115.19 24.04ZM118.246 28.584C118.246 27.976 118.118 27.448 117.862 27C117.616 26.552 117.291 26.2107 116.886 25.976C116.48 25.7413 116.043 25.624 115.574 25.624C115.104 25.624 114.667 25.7413 114.262 25.976C113.856 26.2 113.526 26.536 113.27 26.984C113.024 27.4213 112.902 27.944 112.902 28.552C112.902 29.16 113.024 29.6933 113.27 30.152C113.526 30.6107 113.856 30.9627 114.262 31.208C114.678 31.4427 115.115 31.56 115.574 31.56C116.043 31.56 116.48 31.4427 116.886 31.208C117.291 30.9733 117.616 30.632 117.862 30.184C118.118 29.7253 118.246 29.192 118.246 28.584ZM126.929 24.04C127.623 24.04 128.241 24.184 128.785 24.472C129.34 24.76 129.772 25.1867 130.081 25.752C130.391 26.3173 130.545 27 130.545 27.8V33H128.737V28.072C128.737 27.2827 128.54 26.68 128.145 26.264C127.751 25.8373 127.212 25.624 126.529 25.624C125.847 25.624 125.303 25.8373 124.897 26.264C124.503 26.68 124.305 27.2827 124.305 28.072V33H122.481V24.184H124.305V25.192C124.604 24.8293 124.983 24.5467 125.441 24.344C125.911 24.1413 126.407 24.04 126.929 24.04ZM144.964 24.184L139.556 37.144H137.668L139.46 32.856L135.988 24.184H138.02L140.5 30.904L143.076 24.184H144.964ZM150.165 33.144C149.333 33.144 148.581 32.9573 147.909 32.584C147.237 32.2 146.709 31.6667 146.325 30.984C145.941 30.2907 145.749 29.4907 145.749 28.584C145.749 27.688 145.946 26.8933 146.341 26.2C146.735 25.5067 147.274 24.9733 147.957 24.6C148.639 24.2267 149.402 24.04 150.245 24.04C151.087 24.04 151.85 24.2267 152.533 24.6C153.215 24.9733 153.754 25.5067 154.149 26.2C154.543 26.8933 154.741 27.688 154.741 28.584C154.741 29.48 154.538 30.2747 154.133 30.968C153.727 31.6613 153.173 32.2 152.469 32.584C151.775 32.9573 151.007 33.144 150.165 33.144ZM150.165 31.56C150.634 31.56 151.071 31.448 151.477 31.224C151.893 31 152.229 30.664 152.485 30.216C152.741 29.768 152.869 29.224 152.869 28.584C152.869 27.944 152.746 27.4053 152.501 26.968C152.255 26.52 151.93 26.184 151.525 25.96C151.119 25.736 150.682 25.624 150.213 25.624C149.743 25.624 149.306 25.736 148.901 25.96C148.506 26.184 148.191 26.52 147.957 26.968C147.722 27.4053 147.605 27.944 147.605 28.584C147.605 29.5333 147.845 30.2693 148.325 30.792C148.815 31.304 149.429 31.56 150.165 31.56ZM164.528 24.184V33H162.704V31.96C162.416 32.3227 162.037 32.6107 161.568 32.824C161.109 33.0267 160.618 33.128 160.096 33.128C159.402 33.128 158.778 32.984 158.224 32.696C157.68 32.408 157.248 31.9813 156.928 31.416C156.618 30.8507 156.464 30.168 156.464 29.368V24.184H158.272V29.096C158.272 29.8853 158.469 30.4933 158.864 30.92C159.258 31.336 159.797 31.544 160.48 31.544C161.162 31.544 161.701 31.336 162.096 30.92C162.501 30.4933 162.704 29.8853 162.704 29.096V24.184H164.528ZM182.931 24.184L180.195 33H178.275L176.499 26.488L174.723 33H172.803L170.051 24.184H171.907L173.747 31.272L175.619 24.184H177.523L179.315 31.24L181.139 24.184H182.931ZM192.374 28.376C192.374 28.7067 192.352 29.0053 192.31 29.272H185.574C185.627 29.976 185.888 30.5413 186.358 30.968C186.827 31.3947 187.403 31.608 188.086 31.608C189.067 31.608 189.76 31.1973 190.166 30.376H192.134C191.867 31.1867 191.382 31.8533 190.678 32.376C189.984 32.888 189.12 33.144 188.086 33.144C187.243 33.144 186.486 32.9573 185.814 32.584C185.152 32.2 184.63 31.6667 184.246 30.984C183.872 30.2907 183.686 29.4907 183.686 28.584C183.686 27.6773 183.867 26.8827 184.23 26.2C184.603 25.5067 185.12 24.9733 185.782 24.6C186.454 24.2267 187.222 24.04 188.086 24.04C188.918 24.04 189.659 24.2213 190.31 24.584C190.96 24.9467 191.467 25.4587 191.83 26.12C192.192 26.7707 192.374 27.5227 192.374 28.376ZM190.47 27.8C190.459 27.128 190.219 26.5893 189.75 26.184C189.28 25.7787 188.699 25.576 188.006 25.576C187.376 25.576 186.838 25.7787 186.39 26.184C185.942 26.5787 185.675 27.1173 185.59 27.8H190.47ZM195.993 25.496C196.302 25.0693 196.723 24.7227 197.257 24.456C197.801 24.1787 198.403 24.04 199.065 24.04C199.843 24.04 200.547 24.2267 201.177 24.6C201.806 24.9733 202.302 25.5067 202.665 26.2C203.027 26.8827 203.209 27.6667 203.209 28.552C203.209 29.4373 203.027 30.232 202.665 30.936C202.302 31.6293 201.801 32.1733 201.161 32.568C200.531 32.952 199.833 33.144 199.065 33.144C198.382 33.144 197.774 33.0107 197.241 32.744C196.718 32.4773 196.302 32.136 195.993 31.72V33H194.169V21.16H195.993V25.496ZM201.353 28.552C201.353 27.944 201.225 27.4213 200.969 26.984C200.723 26.536 200.393 26.2 199.977 25.976C199.571 25.7413 199.134 25.624 198.665 25.624C198.206 25.624 197.769 25.7413 197.353 25.976C196.947 26.2107 196.617 26.552 196.361 27C196.115 27.448 195.993 27.976 195.993 28.584C195.993 29.192 196.115 29.7253 196.361 30.184C196.617 30.632 196.947 30.9733 197.353 31.208C197.769 31.4427 198.206 31.56 198.665 31.56C199.134 31.56 199.571 31.4427 199.977 31.208C200.393 30.9627 200.723 30.6107 200.969 30.152C201.225 29.6933 201.353 29.16 201.353 28.552ZM208.213 33.144C207.519 33.144 206.895 33.0213 206.341 32.776C205.797 32.52 205.365 32.1787 205.045 31.752C204.725 31.3147 204.554 30.8293 204.533 30.296H206.421C206.453 30.6693 206.629 30.984 206.949 31.24C207.279 31.4853 207.69 31.608 208.181 31.608C208.693 31.608 209.087 31.512 209.365 31.32C209.653 31.1173 209.797 30.8613 209.797 30.552C209.797 30.2213 209.637 29.976 209.317 29.816C209.007 29.656 208.511 29.48 207.829 29.288C207.167 29.1067 206.629 28.9307 206.213 28.76C205.797 28.5893 205.434 28.328 205.125 27.976C204.826 27.624 204.677 27.16 204.677 26.584C204.677 26.1147 204.815 25.688 205.093 25.304C205.37 24.9093 205.765 24.6 206.277 24.376C206.799 24.152 207.397 24.04 208.069 24.04C209.071 24.04 209.877 24.296 210.485 24.808C211.103 25.3093 211.434 25.9973 211.477 26.872H209.653C209.621 26.4773 209.461 26.1627 209.173 25.928C208.885 25.6933 208.495 25.576 208.005 25.576C207.525 25.576 207.157 25.6667 206.901 25.848C206.645 26.0293 206.517 26.2693 206.517 26.568C206.517 26.8027 206.602 27 206.773 27.16C206.943 27.32 207.151 27.448 207.397 27.544C207.642 27.6293 208.005 27.7413 208.485 27.88C209.125 28.0507 209.647 28.2267 210.053 28.408C210.469 28.5787 210.826 28.8347 211.125 29.176C211.423 29.5173 211.578 29.9707 211.589 30.536C211.589 31.0373 211.45 31.4853 211.173 31.88C210.895 32.2747 210.501 32.584 209.989 32.808C209.487 33.032 208.895 33.144 208.213 33.144ZM214.487 23.016C214.157 23.016 213.879 22.904 213.655 22.68C213.431 22.456 213.319 22.1787 213.319 21.848C213.319 21.5173 213.431 21.24 213.655 21.016C213.879 20.792 214.157 20.68 214.487 20.68C214.807 20.68 215.079 20.792 215.303 21.016C215.527 21.24 215.639 21.5173 215.639 21.848C215.639 22.1787 215.527 22.456 215.303 22.68C215.079 22.904 214.807 23.016 214.487 23.016ZM215.383 24.184V33H213.559V24.184H215.383ZM219.906 25.672V30.552C219.906 30.8827 219.981 31.1227 220.13 31.272C220.29 31.4107 220.557 31.48 220.93 31.48H222.05V33H220.61C219.789 33 219.159 32.808 218.722 32.424C218.285 32.04 218.066 31.416 218.066 30.552V25.672H217.026V24.184H218.066V21.992H219.906V24.184H222.05V25.672H219.906ZM231.811 28.376C231.811 28.7067 231.79 29.0053 231.747 29.272H225.011C225.065 29.976 225.326 30.5413 225.795 30.968C226.265 31.3947 226.841 31.608 227.523 31.608C228.505 31.608 229.198 31.1973 229.603 30.376H231.571C231.305 31.1867 230.819 31.8533 230.115 32.376C229.422 32.888 228.558 33.144 227.523 33.144C226.681 33.144 225.923 32.9573 225.251 32.584C224.59 32.2 224.067 31.6667 223.683 30.984C223.31 30.2907 223.123 29.4907 223.123 28.584C223.123 27.6773 223.305 26.8827 223.667 26.2C224.041 25.5067 224.558 24.9733 225.219 24.6C225.891 24.2267 226.659 24.04 227.523 24.04C228.355 24.04 229.097 24.2213 229.747 24.584C230.398 24.9467 230.905 25.4587 231.267 26.12C231.63 26.7707 231.811 27.5227 231.811 28.376ZM229.907 27.8C229.897 27.128 229.657 26.5893 229.187 26.184C228.718 25.7787 228.137 25.576 227.443 25.576C226.814 25.576 226.275 25.7787 225.827 26.184C225.379 26.5787 225.113 27.1173 225.027 27.8H229.907Z" fill="#2F281E"/>
</g>
<defs>
<filter id="filter0_d" x="-8" y="-6" width="279" height="75" filterUnits="userSpaceOnUse" color-interpolation-filters="sRGB">
<feFlood flood-opacity="0" result="BackgroundImageFix"/>
<feColorMatrix in="SourceAlpha" type="matrix" values="0 0 0 0 0 0 0 0 0 0 0 0 0 0 0 0 0 0 127 0"/>
<feOffset dy="2"/>
<feGaussianBlur stdDeviation="4"/>
<feColorMatrix type="matrix" values="0 0 0 0 0.337255 0 0 0 0 0.458824 0 0 0 0 0.572549 0 0 0 0.1 0"/>
<feBlend mode="normal" in2="BackgroundImageFix" result="effect1_dropShadow"/>
<feBlend mode="normal" in="SourceGraphic" in2="effect1_dropShadow" result="shape"/>
</filter>
<filter id="filter1_d" x="203" y="48" width="39" height="39" filterUnits="userSpaceOnUse" color-interpolation-filters="sRGB">
<feFlood flood-opacity="0" result="BackgroundImageFix"/>
<feColorMatrix in="SourceAlpha" type="matrix" values="0 0 0 0 0 0 0 0 0 0 0 0 0 0 0 0 0 0 127 0"/>
<feOffset dy="2"/>
<feGaussianBlur stdDeviation="7.5"/>
<feColorMatrix type="matrix" values="0 0 0 0 0.0901961 0 0 0 0 0.227451 0 0 0 0 0.337255 0 0 0 0.1 0"/>
<feBlend mode="normal" in2="BackgroundImageFix" result="effect1_dropShadow"/>
<feBlend mode="normal" in="SourceGraphic" in2="effect1_dropShadow" result="shape"/>
</filter>
<clipPath id="clip0">
<rect width="263" height="70" fill="white"/>
</clipPath>
</defs>
</svg>
