<svg width="240" height="70" viewBox="0 0 240 70" fill="none" xmlns="http://www.w3.org/2000/svg">
<g clip-path="url(#clip0)">
<g filter="url(#filter0_d)">
<path fill-rule="evenodd" clip-rule="evenodd" d="M26.5 0C11.8645 0 0 11.8645 0 26.5C0 41.1355 11.8645 53 26.5 53H187.374C188.441 56.4743 191.676 59 195.5 59C199.324 59 202.559 56.4743 203.626 53H213.5C228.136 53 240 41.1355 240 26.5C240 11.8645 228.136 0 213.5 0H26.5Z" fill="white"/>
</g>
<g filter="url(#filter1_d)">
<path fill-rule="evenodd" clip-rule="evenodd" d="M218.5 70C220.985 70 223 67.9853 223 65.5C223 63.0147 220.985 61 218.5 61C216.015 61 214 63.0147 214 65.5C214 67.9853 216.015 70 218.5 70Z" fill="white"/>
</g>
<path d="M25.2349 21.88V33H23.4109V21.88H25.2349ZM31.1779 28.584C31.1779 27.6773 31.3593 26.8827 31.7219 26.2C32.0953 25.5067 32.6073 24.9733 33.2579 24.6C33.9086 24.2267 34.6553 24.04 35.4979 24.04C36.5646 24.04 37.4446 24.296 38.1379 24.808C38.8419 25.3093 39.3166 26.0293 39.5619 26.968H37.5939C37.4339 26.5307 37.1779 26.1893 36.8259 25.944C36.4739 25.6987 36.0313 25.576 35.4979 25.576C34.7513 25.576 34.1539 25.8427 33.7059 26.376C33.2686 26.8987 33.0499 27.6347 33.0499 28.584C33.0499 29.5333 33.2686 30.2747 33.7059 30.808C34.1539 31.3413 34.7513 31.608 35.4979 31.608C36.5539 31.608 37.2526 31.144 37.5939 30.216H39.5619C39.3059 31.112 38.8259 31.8267 38.1219 32.36C37.4179 32.8827 36.5433 33.144 35.4979 33.144C34.6553 33.144 33.9086 32.9573 33.2579 32.584C32.6073 32.2 32.0953 31.6667 31.7219 30.984C31.3593 30.2907 31.1779 29.4907 31.1779 28.584ZM40.7717 28.552C40.7717 27.6667 40.953 26.8827 41.3157 26.2C41.689 25.5173 42.1904 24.9893 42.8197 24.616C43.4597 24.232 44.1637 24.04 44.9317 24.04C45.625 24.04 46.2277 24.1787 46.7397 24.456C47.2624 24.7227 47.6784 25.0587 47.9877 25.464V24.184H49.8277V33H47.9877V31.688C47.6784 32.104 47.257 32.4507 46.7237 32.728C46.1904 33.0053 45.5824 33.144 44.8997 33.144C44.1424 33.144 43.449 32.952 42.8197 32.568C42.1904 32.1733 41.689 31.6293 41.3157 30.936C40.953 30.232 40.7717 29.4373 40.7717 28.552ZM47.9877 28.584C47.9877 27.976 47.8597 27.448 47.6037 27C47.3584 26.552 47.033 26.2107 46.6277 25.976C46.2224 25.7413 45.785 25.624 45.3157 25.624C44.8464 25.624 44.409 25.7413 44.0037 25.976C43.5984 26.2 43.2677 26.536 43.0117 26.984C42.7664 27.4213 42.6437 27.944 42.6437 28.552C42.6437 29.16 42.7664 29.6933 43.0117 30.152C43.2677 30.6107 43.5984 30.9627 44.0037 31.208C44.4197 31.4427 44.857 31.56 45.3157 31.56C45.785 31.56 46.2224 31.4427 46.6277 31.208C47.033 30.9733 47.3584 30.632 47.6037 30.184C47.8597 29.7253 47.9877 29.192 47.9877 28.584ZM56.6714 24.04C57.3648 24.04 57.9834 24.184 58.5274 24.472C59.0821 24.76 59.5141 25.1867 59.8234 25.752C60.1328 26.3173 60.2874 27 60.2874 27.8V33H58.4794V28.072C58.4794 27.2827 58.2821 26.68 57.8874 26.264C57.4928 25.8373 56.9541 25.624 56.2714 25.624C55.5888 25.624 55.0448 25.8373 54.6394 26.264C54.2448 26.68 54.0474 27.2827 54.0474 28.072V33H52.2234V24.184H54.0474V25.192C54.3461 24.8293 54.7248 24.5467 55.1834 24.344C55.6528 24.1413 56.1488 24.04 56.6714 24.04ZM68.5943 25.48C68.9036 25.0747 69.325 24.7333 69.8583 24.456C70.3916 24.1787 70.9943 24.04 71.6663 24.04C72.4343 24.04 73.133 24.232 73.7623 24.616C74.4023 24.9893 74.9036 25.5173 75.2663 26.2C75.629 26.8827 75.8103 27.6667 75.8103 28.552C75.8103 29.4373 75.629 30.232 75.2663 30.936C74.9036 31.6293 74.4023 32.1733 73.7623 32.568C73.133 32.952 72.4343 33.144 71.6663 33.144C70.9943 33.144 70.397 33.0107 69.8743 32.744C69.3516 32.4667 68.925 32.1253 68.5943 31.72V37.192H66.7703V24.184H68.5943V25.48ZM73.9543 28.552C73.9543 27.944 73.8263 27.4213 73.5703 26.984C73.325 26.536 72.9943 26.2 72.5783 25.976C72.173 25.7413 71.7356 25.624 71.2663 25.624C70.8076 25.624 70.3703 25.7413 69.9543 25.976C69.549 26.2107 69.2183 26.552 68.9623 27C68.717 27.448 68.5943 27.976 68.5943 28.584C68.5943 29.192 68.717 29.7253 68.9623 30.184C69.2183 30.632 69.549 30.9733 69.9543 31.208C70.3703 31.4427 70.8076 31.56 71.2663 31.56C71.7356 31.56 72.173 31.4427 72.5783 31.208C72.9943 30.9627 73.325 30.6107 73.5703 30.152C73.8263 29.6933 73.9543 29.16 73.9543 28.552ZM79.4381 25.464C79.7047 25.016 80.0567 24.6693 80.4941 24.424C80.9421 24.168 81.4701 24.04 82.0781 24.04V25.928H81.6141C80.8994 25.928 80.3554 26.1093 79.9821 26.472C79.6194 26.8347 79.4381 27.464 79.4381 28.36V33H77.6141V24.184H79.4381V25.464ZM87.5787 33.144C86.7467 33.144 85.9947 32.9573 85.3227 32.584C84.6507 32.2 84.1227 31.6667 83.7387 30.984C83.3547 30.2907 83.1627 29.4907 83.1627 28.584C83.1627 27.688 83.36 26.8933 83.7547 26.2C84.1494 25.5067 84.688 24.9733 85.3707 24.6C86.0534 24.2267 86.816 24.04 87.6587 24.04C88.5014 24.04 89.264 24.2267 89.9467 24.6C90.6294 24.9733 91.168 25.5067 91.5627 26.2C91.9574 26.8933 92.1547 27.688 92.1547 28.584C92.1547 29.48 91.952 30.2747 91.5467 30.968C91.1414 31.6613 90.5867 32.2 89.8827 32.584C89.1894 32.9573 88.4214 33.144 87.5787 33.144ZM87.5787 31.56C88.048 31.56 88.4854 31.448 88.8907 31.224C89.3067 31 89.6427 30.664 89.8987 30.216C90.1547 29.768 90.2827 29.224 90.2827 28.584C90.2827 27.944 90.16 27.4053 89.9147 26.968C89.6694 26.52 89.344 26.184 88.9387 25.96C88.5334 25.736 88.096 25.624 87.6267 25.624C87.1574 25.624 86.72 25.736 86.3147 25.96C85.92 26.184 85.6054 26.52 85.3707 26.968C85.136 27.4053 85.0187 27.944 85.0187 28.584C85.0187 29.5333 85.2587 30.2693 85.7387 30.792C86.2294 31.304 86.8427 31.56 87.5787 31.56ZM96.0858 25.672V30.552C96.0858 30.8827 96.1605 31.1227 96.3098 31.272C96.4698 31.4107 96.7365 31.48 97.1098 31.48H98.2298V33H96.7898C95.9685 33 95.3391 32.808 94.9018 32.424C94.4645 32.04 94.2458 31.416 94.2458 30.552V25.672H93.2058V24.184H94.2458V21.992H96.0858V24.184H98.2298V25.672H96.0858ZM103.735 33.144C102.903 33.144 102.151 32.9573 101.479 32.584C100.807 32.2 100.279 31.6667 99.8949 30.984C99.5109 30.2907 99.3189 29.4907 99.3189 28.584C99.3189 27.688 99.5163 26.8933 99.9109 26.2C100.306 25.5067 100.844 24.9733 101.527 24.6C102.21 24.2267 102.972 24.04 103.815 24.04C104.658 24.04 105.42 24.2267 106.103 24.6C106.786 24.9733 107.324 25.5067 107.719 26.2C108.114 26.8933 108.311 27.688 108.311 28.584C108.311 29.48 108.108 30.2747 107.703 30.968C107.298 31.6613 106.743 32.2 106.039 32.584C105.346 32.9573 104.578 33.144 103.735 33.144ZM103.735 31.56C104.204 31.56 104.642 31.448 105.047 31.224C105.463 31 105.799 30.664 106.055 30.216C106.311 29.768 106.439 29.224 106.439 28.584C106.439 27.944 106.316 27.4053 106.071 26.968C105.826 26.52 105.5 26.184 105.095 25.96C104.69 25.736 104.252 25.624 103.783 25.624C103.314 25.624 102.876 25.736 102.471 25.96C102.076 26.184 101.762 26.52 101.527 26.968C101.292 27.4053 101.175 27.944 101.175 28.584C101.175 29.5333 101.415 30.2693 101.895 30.792C102.386 31.304 102.999 31.56 103.735 31.56ZM112.242 25.672V30.552C112.242 30.8827 112.317 31.1227 112.466 31.272C112.626 31.4107 112.893 31.48 113.266 31.48H114.386V33H112.946C112.125 33 111.495 32.808 111.058 32.424C110.621 32.04 110.402 31.416 110.402 30.552V25.672H109.362V24.184H110.402V21.992H112.242V24.184H114.386V25.672H112.242ZM124.003 24.184L118.595 37.144H116.707L118.499 32.856L115.027 24.184H117.059L119.539 30.904L122.115 24.184H124.003ZM127.204 25.48C127.513 25.0747 127.934 24.7333 128.468 24.456C129.001 24.1787 129.604 24.04 130.276 24.04C131.044 24.04 131.742 24.232 132.372 24.616C133.012 24.9893 133.513 25.5173 133.876 26.2C134.238 26.8827 134.42 27.6667 134.42 28.552C134.42 29.4373 134.238 30.232 133.876 30.936C133.513 31.6293 133.012 32.1733 132.372 32.568C131.742 32.952 131.044 33.144 130.276 33.144C129.604 33.144 129.006 33.0107 128.484 32.744C127.961 32.4667 127.534 32.1253 127.204 31.72V37.192H125.38V24.184H127.204V25.48ZM132.564 28.552C132.564 27.944 132.436 27.4213 132.18 26.984C131.934 26.536 131.604 26.2 131.188 25.976C130.782 25.7413 130.345 25.624 129.876 25.624C129.417 25.624 128.98 25.7413 128.564 25.976C128.158 26.2107 127.828 26.552 127.572 27C127.326 27.448 127.204 27.976 127.204 28.584C127.204 29.192 127.326 29.7253 127.572 30.184C127.828 30.632 128.158 30.9733 128.564 31.208C128.98 31.4427 129.417 31.56 129.876 31.56C130.345 31.56 130.782 31.4427 131.188 31.208C131.604 30.9627 131.934 30.6107 132.18 30.152C132.436 29.6933 132.564 29.16 132.564 28.552ZM144.303 28.376C144.303 28.7067 144.282 29.0053 144.239 29.272H137.503C137.557 29.976 137.818 30.5413 138.287 30.968C138.757 31.3947 139.333 31.608 140.015 31.608C140.997 31.608 141.69 31.1973 142.095 30.376H144.063C143.797 31.1867 143.311 31.8533 142.607 32.376C141.914 32.888 141.05 33.144 140.015 33.144C139.173 33.144 138.415 32.9573 137.743 32.584C137.082 32.2 136.559 31.6667 136.175 30.984C135.802 30.2907 135.615 29.4907 135.615 28.584C135.615 27.6773 135.797 26.8827 136.159 26.2C136.533 25.5067 137.05 24.9733 137.711 24.6C138.383 24.2267 139.151 24.04 140.015 24.04C140.847 24.04 141.589 24.2213 142.239 24.584C142.89 24.9467 143.397 25.4587 143.759 26.12C144.122 26.7707 144.303 27.5227 144.303 28.376ZM142.399 27.8C142.389 27.128 142.149 26.5893 141.679 26.184C141.21 25.7787 140.629 25.576 139.935 25.576C139.306 25.576 138.767 25.7787 138.319 26.184C137.871 26.5787 137.605 27.1173 137.519 27.8H142.399ZM158.191 24.184L152.783 37.144H150.895L152.687 32.856L149.215 24.184H151.247L153.727 30.904L156.303 24.184H158.191ZM163.391 33.144C162.559 33.144 161.807 32.9573 161.135 32.584C160.463 32.2 159.935 31.6667 159.551 30.984C159.167 30.2907 158.975 29.4907 158.975 28.584C158.975 27.688 159.173 26.8933 159.567 26.2C159.962 25.5067 160.501 24.9733 161.183 24.6C161.866 24.2267 162.629 24.04 163.471 24.04C164.314 24.04 165.077 24.2267 165.759 24.6C166.442 24.9733 166.981 25.5067 167.375 26.2C167.77 26.8933 167.967 27.688 167.967 28.584C167.967 29.48 167.765 30.2747 167.359 30.968C166.954 31.6613 166.399 32.2 165.695 32.584C165.002 32.9573 164.234 33.144 163.391 33.144ZM163.391 31.56C163.861 31.56 164.298 31.448 164.703 31.224C165.119 31 165.455 30.664 165.711 30.216C165.967 29.768 166.095 29.224 166.095 28.584C166.095 27.944 165.973 27.4053 165.727 26.968C165.482 26.52 165.157 26.184 164.751 25.96C164.346 25.736 163.909 25.624 163.439 25.624C162.97 25.624 162.533 25.736 162.127 25.96C161.733 26.184 161.418 26.52 161.183 26.968C160.949 27.4053 160.831 27.944 160.831 28.584C160.831 29.5333 161.071 30.2693 161.551 30.792C162.042 31.304 162.655 31.56 163.391 31.56ZM177.754 24.184V33H175.93V31.96C175.642 32.3227 175.264 32.6107 174.794 32.824C174.336 33.0267 173.845 33.128 173.322 33.128C172.629 33.128 172.005 32.984 171.45 32.696C170.906 32.408 170.474 31.9813 170.154 31.416C169.845 30.8507 169.69 30.168 169.69 29.368V24.184H171.498V29.096C171.498 29.8853 171.696 30.4933 172.09 30.92C172.485 31.336 173.024 31.544 173.706 31.544C174.389 31.544 174.928 31.336 175.322 30.92C175.728 30.4933 175.93 29.8853 175.93 29.096V24.184H177.754ZM181.985 25.464C182.252 25.016 182.604 24.6693 183.041 24.424C183.489 24.168 184.017 24.04 184.625 24.04V25.928H184.161C183.446 25.928 182.902 26.1093 182.529 26.472C182.166 26.8347 181.985 27.464 181.985 28.36V33H180.161V24.184H181.985V25.464ZM189.85 28.552C189.85 27.6667 190.031 26.8827 190.394 26.2C190.767 25.5173 191.268 24.9893 191.898 24.616C192.538 24.232 193.242 24.04 194.01 24.04C194.703 24.04 195.306 24.1787 195.818 24.456C196.34 24.7227 196.756 25.0587 197.066 25.464V24.184H198.906V33H197.066V31.688C196.756 32.104 196.335 32.4507 195.802 32.728C195.268 33.0053 194.66 33.144 193.978 33.144C193.22 33.144 192.527 32.952 191.898 32.568C191.268 32.1733 190.767 31.6293 190.394 30.936C190.031 30.232 189.85 29.4373 189.85 28.552ZM197.066 28.584C197.066 27.976 196.938 27.448 196.682 27C196.436 26.552 196.111 26.2107 195.706 25.976C195.3 25.7413 194.863 25.624 194.394 25.624C193.924 25.624 193.487 25.7413 193.082 25.976C192.676 26.2 192.346 26.536 192.09 26.984C191.844 27.4213 191.722 27.944 191.722 28.552C191.722 29.16 191.844 29.6933 192.09 30.152C192.346 30.6107 192.676 30.9627 193.082 31.208C193.498 31.4427 193.935 31.56 194.394 31.56C194.863 31.56 195.3 31.4427 195.706 31.208C196.111 30.9733 196.436 30.632 196.682 30.184C196.938 29.7253 197.066 29.192 197.066 28.584ZM203.126 25.48C203.435 25.0747 203.856 24.7333 204.39 24.456C204.923 24.1787 205.526 24.04 206.198 24.04C206.966 24.04 207.664 24.232 208.294 24.616C208.934 24.9893 209.435 25.5173 209.798 26.2C210.16 26.8827 210.342 27.6667 210.342 28.552C210.342 29.4373 210.16 30.232 209.798 30.936C209.435 31.6293 208.934 32.1733 208.294 32.568C207.664 32.952 206.966 33.144 206.198 33.144C205.526 33.144 204.928 33.0107 204.406 32.744C203.883 32.4667 203.456 32.1253 203.126 31.72V37.192H201.302V24.184H203.126V25.48ZM208.486 28.552C208.486 27.944 208.358 27.4213 208.102 26.984C207.856 26.536 207.526 26.2 207.11 25.976C206.704 25.7413 206.267 25.624 205.798 25.624C205.339 25.624 204.902 25.7413 204.486 25.976C204.08 26.2107 203.75 26.552 203.494 27C203.248 27.448 203.126 27.976 203.126 28.584C203.126 29.192 203.248 29.7253 203.494 30.184C203.75 30.632 204.08 30.9733 204.486 31.208C204.902 31.4427 205.339 31.56 205.798 31.56C206.267 31.56 206.704 31.4427 207.11 31.208C207.526 30.9627 207.856 30.6107 208.102 30.152C208.358 29.6933 208.486 29.16 208.486 28.552ZM213.969 25.48C214.279 25.0747 214.7 24.7333 215.233 24.456C215.767 24.1787 216.369 24.04 217.041 24.04C217.809 24.04 218.508 24.232 219.137 24.616C219.777 24.9893 220.279 25.5173 220.641 26.2C221.004 26.8827 221.185 27.6667 221.185 28.552C221.185 29.4373 221.004 30.232 220.641 30.936C220.279 31.6293 219.777 32.1733 219.137 32.568C218.508 32.952 217.809 33.144 217.041 33.144C216.369 33.144 215.772 33.0107 215.249 32.744C214.727 32.4667 214.3 32.1253 213.969 31.72V37.192H212.145V24.184H213.969V25.48ZM219.329 28.552C219.329 27.944 219.201 27.4213 218.945 26.984C218.7 26.536 218.369 26.2 217.953 25.976C217.548 25.7413 217.111 25.624 216.641 25.624C216.183 25.624 215.745 25.7413 215.329 25.976C214.924 26.2107 214.593 26.552 214.337 27C214.092 27.448 213.969 27.976 213.969 28.584C213.969 29.192 214.092 29.7253 214.337 30.184C214.593 30.632 214.924 30.9733 215.329 31.208C215.745 31.4427 216.183 31.56 216.641 31.56C217.111 31.56 217.548 31.4427 217.953 31.208C218.369 30.9627 218.7 30.6107 218.945 30.152C219.201 29.6933 219.329 29.16 219.329 28.552Z" fill="#2F281E"/>
</g>
<defs>
<filter id="filter0_d" x="-8" y="-6" width="256" height="75" filterUnits="userSpaceOnUse" color-interpolation-filters="sRGB">
<feFlood flood-opacity="0" result="BackgroundImageFix"/>
<feColorMatrix in="SourceAlpha" type="matrix" values="0 0 0 0 0 0 0 0 0 0 0 0 0 0 0 0 0 0 127 0"/>
<feOffset dy="2"/>
<feGaussianBlur stdDeviation="4"/>
<feColorMatrix type="matrix" values="0 0 0 0 0.337255 0 0 0 0 0.458824 0 0 0 0 0.572549 0 0 0 0.1 0"/>
<feBlend mode="normal" in2="BackgroundImageFix" result="effect1_dropShadow"/>
<feBlend mode="normal" in="SourceGraphic" in2="effect1_dropShadow" result="shape"/>
</filter>
<filter id="filter1_d" x="199" y="48" width="39" height="39" filterUnits="userSpaceOnUse" color-interpolation-filters="sRGB">
<feFlood flood-opacity="0" result="BackgroundImageFix"/>
<feColorMatrix in="SourceAlpha" type="matrix" values="0 0 0 0 0 0 0 0 0 0 0 0 0 0 0 0 0 0 127 0"/>
<feOffset dy="2"/>
<feGaussianBlur stdDeviation="7.5"/>
<feColorMatrix type="matrix" values="0 0 0 0 0.0901961 0 0 0 0 0.227451 0 0 0 0 0.337255 0 0 0 0.1 0"/>
<feBlend mode="normal" in2="BackgroundImageFix" result="effect1_dropShadow"/>
<feBlend mode="normal" in="SourceGraphic" in2="effect1_dropShadow" result="shape"/>
</filter>
<clipPath id="clip0">
<rect width="240" height="70" fill="white"/>
</clipPath>
</defs>
</svg>
